<svg width="437" height="505" viewBox="0 0 437 505" fill="none" xmlns="http://www.w3.org/2000/svg">
<circle opacity="0.1" cx="218.5" cy="218.5" r="218.5" fill="#F8B64C"/>
<path fill-rule="evenodd" clip-rule="evenodd" d="M383.704 424.434C384.708 425.964 385.713 427.495 386.768 428.99C386.923 429.209 387.081 429.43 387.241 429.653C388.735 431.738 390.335 433.972 390.311 436.623C390.3 437.927 390.11 439.368 388.853 440.069C388.825 439.561 388.097 440.063 387.853 440.232C387.839 440.242 387.826 440.251 387.815 440.258C387.379 440.555 387.292 440.68 387.183 440.704C387.082 440.727 386.962 440.663 386.527 440.567C385.978 440.445 385.46 440.431 384.954 440.416C384.106 440.392 383.296 440.369 382.444 439.846C381.619 439.34 380.798 438.829 379.977 438.318C377.928 437.044 375.881 435.771 373.786 434.564C367.444 430.912 361.165 427.172 355.282 422.807C352.02 420.387 348.67 418.047 345.313 415.703C338.084 410.654 330.826 405.585 324.371 399.657C314.926 390.984 305.014 382.378 293.807 376.035C293.638 375.94 293.4 375.834 293.134 375.715C292.209 375.305 290.947 374.744 291.1 373.957C291.23 373.295 292.339 372.434 293.176 371.784C293.462 371.561 293.717 371.364 293.89 371.207C294.725 370.45 295.572 369.708 296.42 368.966C297.964 367.613 299.508 366.26 300.976 364.822C305.174 360.71 309.34 356.172 312.707 351.347C314.181 349.235 315.005 346.91 315.852 344.521C315.947 344.255 316.041 343.988 316.137 343.72C316.981 341.364 317.761 338.464 316.391 336.134C315.757 335.054 314.882 334.617 313.657 334.698C313.495 334.709 313.36 334.724 313.246 334.736C312.647 334.8 312.625 334.802 312.287 333.899C312.234 333.756 312.182 333.611 312.13 333.465C311.756 332.421 311.36 331.316 310.343 330.729C309.242 330.093 308.463 330.66 307.592 331.293C307.512 331.352 307.431 331.411 307.349 331.469C307.166 331.205 306.976 330.91 306.777 330.599C305.757 329.009 304.487 327.03 302.598 326.9C300.255 326.739 298.919 329.616 298.103 331.37L298.088 331.402C295.682 336.581 292.55 341.418 289.182 346.03C285.532 351.029 281.799 356.114 277.777 360.821C277.594 361.036 277.405 361.273 277.209 361.517C276.498 362.406 275.7 363.403 274.759 363.877C273.528 364.497 272.507 363.914 271.467 363.201C270.896 362.809 270.329 362.416 269.763 362.022C267.896 360.725 266.036 359.434 264.078 358.252C261.913 356.946 259.702 355.724 257.49 354.502C256.813 354.128 256.136 353.754 255.46 353.377C254.955 353.096 254.461 352.792 253.966 352.488C253.214 352.025 252.461 351.563 251.67 351.178C250.972 350.84 250.239 350.599 249.506 350.357C248.955 350.176 248.404 349.995 247.868 349.772C252.168 348.49 256.682 349.982 260.807 351.344C261.087 351.437 261.365 351.528 261.641 351.619C263.897 352.357 266.255 353.126 268.663 352.927C270.746 352.756 272.636 351.641 274.283 350.423C277.261 348.221 277.495 344.914 276.524 341.572C275.867 339.309 275.005 337.098 274.144 334.888C273.541 333.341 272.938 331.794 272.406 330.23C271.819 328.504 271.414 326.671 272.751 325.18C273.948 323.846 275.496 323.682 277.128 324.207C277.291 324.259 277.452 324.311 277.613 324.363C281.377 325.577 284.773 326.672 288.844 326.556C292.162 326.461 296.382 325.52 298.618 322.823C299.843 321.345 299.889 319.313 299.894 317.48C299.901 315.307 299.763 313.122 299.459 310.971C299.343 310.145 299.186 309.319 299.029 308.494C298.458 305.484 297.889 302.488 299.274 299.564C299.688 298.69 300.84 296.654 301.981 296.532C303.212 296.401 303.501 297.876 303.683 298.802C303.705 298.914 303.726 299.018 303.746 299.11C303.934 298.991 304.115 298.955 304.276 298.922C304.569 298.863 304.794 298.818 304.872 298.311C306.049 299.545 307.062 300.905 308.076 302.267C308.511 302.852 308.947 303.437 309.396 304.013C310.035 304.832 310.834 305.577 311.634 306.322C312.628 307.247 313.622 308.173 314.309 309.244C315.008 310.334 314.476 311.798 313.978 313.172C313.726 313.866 313.483 314.536 313.411 315.123C313.168 317.094 313.683 319.349 315.029 320.852C315.659 321.554 316.429 322.043 317.359 322.231C317.854 322.332 318.337 322.223 318.803 322.118C319.208 322.027 319.601 321.938 319.98 321.992C320.554 322.073 320.662 322.407 320.825 322.912C320.854 323.002 320.886 323.098 320.921 323.199C321.245 324.11 321.657 324.97 322.42 325.61C322.739 325.877 323.067 326.074 323.387 326.265C323.922 326.585 324.433 326.891 324.84 327.491C324.981 327.699 325.107 327.905 325.229 328.106C325.602 328.717 325.948 329.285 326.611 329.723C326.914 329.923 327.264 330.087 327.614 330.251C328.624 330.725 329.639 331.201 329.545 332.547L330.151 332.065C330.619 333.571 331.264 335.029 331.953 336.444C332.275 337.108 332.441 337.46 332.424 338.198C332.421 338.357 332.39 338.504 332.36 338.645C332.298 338.936 332.241 339.207 332.435 339.523C332.685 339.932 333.164 340.089 333.639 340.245C334.038 340.375 334.435 340.505 334.692 340.783C334.969 341.084 334.975 341.436 334.98 341.782C334.985 342.154 334.991 342.517 335.337 342.799C335.056 342.886 334.277 343.515 334.57 343.897C334.824 344.228 334.937 344.085 335.05 343.94C335.125 343.844 335.201 343.748 335.318 343.784C335.683 343.896 335.81 344.193 335.932 344.48C336.036 344.725 336.137 344.961 336.381 345.067C336.491 345.115 336.481 344.595 336.476 344.472C338.065 347.605 339.796 350.661 341.527 353.717C343.779 357.694 346.031 361.67 347.968 365.81C354.064 378.841 361.311 391.529 369.325 403.481C369.954 404.419 370.603 405.354 371.253 406.292C372.559 408.174 373.871 410.065 375.038 412C376.145 413.838 377.424 415.544 378.705 417.252C379.456 418.253 380.208 419.255 380.926 420.285C381.878 421.65 382.791 423.042 383.704 424.434ZM336.474 344.469C336.473 344.436 336.474 344.442 336.476 344.472C336.475 344.471 336.475 344.47 336.474 344.469ZM206.764 334.007C206.745 334.246 206.726 334.492 206.807 334.77C206.89 335.054 207.127 335.267 207.362 335.479C207.53 335.63 207.696 335.78 207.805 335.955C208.676 334.671 208.646 331.923 208.114 330.551C207.863 329.902 207.388 329.059 207.012 328.489C206.953 328.401 206.857 328.304 206.763 328.21C206.66 328.107 206.561 328.007 206.521 327.927C206.456 327.798 206.426 327.623 206.396 327.445C206.364 327.257 206.332 327.066 206.257 326.926C205.834 326.14 204.908 325.946 204.095 326.039C204.008 326.049 203.919 326.059 203.83 326.069C203.084 326.15 202.27 326.24 201.604 326.563C201.398 326.664 201.222 326.787 201.053 326.905C200.661 327.18 200.31 327.426 199.71 327.288C199.925 327.659 199.76 327.93 199.587 328.214C199.488 328.378 199.385 328.546 199.353 328.74C199.24 329.417 199.459 330.025 199.907 330.539C200.736 331.493 201.932 331.576 203.098 331.658C203.235 331.667 203.371 331.677 203.507 331.688C204.596 331.775 205.936 331.956 206.576 332.976C206.815 333.358 206.789 333.677 206.764 334.007ZM211.751 330.986C212.281 331.895 213.476 334.321 213.384 335.457V338.358C213.287 339.371 211.576 341.102 210.692 341.996C210.592 342.097 210.503 342.187 210.428 342.265C208.588 344.159 206.589 344.401 203.862 344.16C201.551 343.955 198.559 343.185 196.995 341.348C195.494 339.586 195.516 336.856 195.738 334.686C196.048 331.656 197.377 328.896 199.148 326.445C200.186 325.01 203.025 321.668 205.192 322.399C205.512 322.507 205.757 322.793 205.975 323.049C206.015 323.096 206.055 323.142 206.093 323.186C206.27 323.415 206.445 323.646 206.62 323.878C206.728 324.182 206.922 324.272 207.202 324.148C207.456 324.5 207.745 324.823 208.034 325.145C208.608 325.788 209.181 326.427 209.472 327.288C209.748 328.106 210.321 328.908 210.878 329.687C211.193 330.128 211.503 330.561 211.751 330.986Z" fill="#EEA734"/>
<path fill-rule="evenodd" clip-rule="evenodd" d="M307.879 498.074C309.456 497.457 311.4 497.745 313.054 497.775C315.13 497.812 317.211 497.97 319.281 498.131C323.256 498.443 327.21 498.312 331.189 498.683C333.164 498.868 335.14 499.038 337.117 499.206C338.847 499.354 340.857 499.813 342.585 499.482C343.298 499.346 345.223 498.675 344.866 497.63C344.591 496.824 342.424 496.327 341.718 496.098C340.057 495.558 338.342 495.171 336.663 494.69C335.801 494.443 334.942 494.177 334.034 494.263C333.263 494.336 332.451 494.911 331.67 494.844C330.516 494.747 329.921 493.297 329.074 492.657C327.725 491.639 326.726 492.183 325.692 493.305C324.927 494.135 324.199 495.391 322.945 495.465C321.349 495.559 321.039 494.191 321.743 493.031C322.391 491.963 324.157 490.867 324.252 489.535C324.312 488.693 322.965 486.44 322.19 486.12C320.887 485.581 319.045 487.007 317.866 487.445C315.808 488.209 313.708 488.886 311.624 489.576C310.199 490.048 308.084 490.09 307.815 491.76C307.478 493.851 307.888 495.974 307.879 498.074ZM226.316 465.93C226.731 465.012 227.166 464.49 226.338 463.639C225.875 463.162 225.221 462.928 224.765 462.433C224.08 461.691 223.007 459.66 224.475 459.149C225.879 458.66 227.061 460.613 228.191 461.043C229.624 461.587 230.512 460.674 230.717 459.304C230.981 457.544 230.691 455.705 230.901 453.923C231.107 452.176 231.717 450.726 232.185 449.054C232.503 447.92 232.891 446.778 231.451 446.526C230.13 446.296 228.598 446.844 227.259 446.918C225.171 447.033 223.057 447.138 220.986 447.451C218.673 447.801 218.715 450.166 218.135 452.099C216.727 456.786 214.84 461.384 213.96 466.216C213.582 468.299 214.586 469.726 215.755 471.364C217.219 473.415 218.742 475.461 220.4 477.361C221.508 478.63 222.755 479.812 224.367 480.395C226.194 481.056 226.891 480.322 226.47 478.522C225.914 476.146 225.075 473.85 225.173 471.375C225.21 470.474 225.472 469.506 224.822 468.751C224.371 468.228 223.599 468.052 223.011 467.734C222.041 467.209 220.539 465.519 222.428 465.155C223.711 464.908 225.075 465.771 226.316 465.93ZM269.942 372.846C271.095 374.133 272.348 375.365 273.441 376.702C274.067 377.469 274.511 378.39 275.184 379.117C276.657 380.709 278.124 378.945 279.428 377.914C284.558 373.859 289.385 369.464 294.272 365.124C296.601 363.056 299.078 361.148 301.369 359.041C303.691 356.906 305.623 354.408 307.798 352.133C308.842 351.041 310.093 349.957 310.737 348.562C311.287 347.372 311.409 346.078 312.036 344.902C313.121 342.864 315.111 340.499 314.655 338.035C313.311 339.444 311.073 344.492 308.728 342.125C307.054 340.435 308.764 337.937 308.689 335.967C307.1 336.641 307.513 339.375 305.819 339.859C304.903 340.121 304.119 339.291 303.692 338.564C302.953 337.307 303.224 335.991 303.56 334.657C303.788 333.748 305.248 330.75 303.804 330.381C302.554 330.06 301.505 332.36 301.091 333.175C300.331 334.67 299.743 336.215 298.909 337.678C297.471 340.199 295.814 342.608 294.234 345.042C290.981 350.056 287.271 354.761 283.455 359.357C279.379 364.265 274.967 368.893 269.942 372.846ZM306.08 388.792C305.916 393.209 302.121 396.558 298.838 399.013C294.642 402.152 290.771 405.718 285.767 407.504C283.84 408.192 281.434 407.994 280.662 410.162C280.361 411.01 280.635 411.322 280.962 412.175C281.473 413.51 281.78 414.958 282.023 416.363C282.849 421.144 282.046 426.013 279.173 429.994C277.646 432.11 275.695 433.909 273.677 435.549C271.664 437.185 269.761 439.093 267.542 440.447C262.81 443.333 257.552 444.991 252.096 445.788C249.258 446.204 246.408 446.573 243.542 446.72C242.055 446.796 240.566 446.81 239.079 446.744C238.414 446.715 235.943 446.154 235.463 446.534C235.094 446.828 234.929 448.602 234.855 449.092C234.698 450.127 234.574 451.148 234.361 452.174C233.931 454.234 233.353 456.564 233.985 458.643C234.169 459.244 234.317 459.733 234.874 459.935C235.226 460.063 235.852 459.838 236.208 459.801C237.015 459.718 237.777 459.686 238.588 459.772C241.251 460.054 243.867 460.734 246.558 460.549C252.296 460.154 258.04 459.75 263.726 458.852C266.491 458.415 269.145 457.589 271.864 456.951C274.457 456.342 277.047 455.728 279.467 454.585C284.207 452.346 288.588 449.384 292.501 445.914C296.679 442.209 299.444 437.818 302.058 432.918C304.354 428.613 306.289 424.256 306.189 419.294C306.125 416.154 305.675 412.263 307.491 409.493C308.32 408.228 309.993 407.055 311.552 407.724C314.381 408.939 311.708 411.343 310.63 412.66C309.075 414.558 309.284 417.448 309.123 419.769C308.932 422.507 308.317 424.91 307.717 427.558C307.13 430.15 308.314 433.225 308.431 435.87C308.558 438.737 308.475 441.607 308.443 444.476C308.379 450.182 308.644 455.872 308.625 461.576C308.614 464.535 308.69 467.508 308.503 470.463C308.332 473.157 307.78 475.734 307.297 478.379C306.823 480.976 306.132 484.085 306.292 486.724C312.775 484.256 319.085 481.342 325.667 479.137C323.614 477.347 323.523 474.817 323.357 472.293C323.139 468.964 322.591 465.663 322.352 462.334C321.879 455.758 322.012 448.842 322.571 442.274C323.172 435.223 324.237 428.195 324.456 421.115C324.562 417.704 324.298 414.284 323.742 410.918C323.274 408.082 322.868 404.514 321.389 402.001C319.976 399.601 317.378 398.075 315.211 396.44C312.041 394.049 309.105 391.36 306.08 388.792ZM306.473 296.567C307.284 297.664 308.201 298.677 309.172 299.636C310.173 300.625 310.6 300.406 311.798 299.892C314.18 298.868 314.134 297.684 312.804 295.632C309.72 290.871 308.55 285.201 305.286 280.537C302.07 275.942 297.393 272.23 292.482 269.58C287.212 266.737 281.502 265.832 275.562 265.917C272.526 265.961 269.472 266.17 266.455 266.51C263.521 266.841 260.911 267.804 258.07 268.531C256.64 268.897 255.166 269.2 253.775 269.703C252.556 270.144 251.459 270.825 250.227 271.237C247.529 272.139 244.814 273.146 242.38 274.62C240 276.062 237.857 277.599 235.695 279.369C233.457 281.202 231.513 283.332 229.092 284.941C226.889 286.407 225.136 288.381 223.138 290.098C221.051 291.892 219.125 294.09 217.559 296.357C216.028 298.574 215.445 301.443 214.52 303.942C213.443 306.852 212.375 309.963 211.969 313.048C211.214 318.796 212.91 325.515 215.067 330.835C217.201 336.097 220.659 340.487 224.785 344.34C226.796 346.219 228.991 347.924 231.45 349.18C233.554 350.255 236.297 352.187 238.586 350.837C239.514 350.29 240.266 349.654 241.338 349.408C242.509 349.139 243.657 349.249 244.603 348.39C245.406 347.66 245.791 346.779 246.846 346.339C248.097 345.816 249.577 345.721 250.917 345.725C253.926 345.735 256.936 346.488 259.808 347.323C262.439 348.088 264.641 349.243 267.437 348.543C269.515 348.024 272.846 346.642 273.294 344.261C273.695 342.132 272.15 339.38 271.372 337.476C270.297 334.843 269.323 332.254 268.648 329.487C268.113 327.294 267.272 323.786 268.783 321.781C270.268 319.812 273.7 319.836 275.833 320.331C277.23 320.656 278.515 321.309 279.913 321.639C281.338 321.975 282.812 322.143 284.265 322.308C289.3 322.877 296.464 321.59 296.196 315.155C295.958 309.42 292.797 303.671 294.648 297.929C295.402 295.589 296.943 292.882 299.509 292.264C301.543 291.774 304.294 292.288 306.089 293.352C307.53 294.206 308.957 295.996 306.473 296.567ZM205.35 322.183C200.274 323.173 196.917 328.524 195.987 333.268C195.565 335.418 195.417 337.978 196.232 340.059C197.172 342.457 199.828 343.458 202.172 343.961C204.851 344.536 207.225 344.311 209.349 342.454C210.283 341.637 211.074 340.685 211.745 339.646C212.431 338.582 213.385 337.808 212.696 336.619C210.985 333.675 209.526 330.783 208.4 327.544C207.897 326.099 207.45 324.686 207.117 323.198C206.852 322.016 206.724 321.294 205.35 322.183ZM249.806 354.3C248.824 355.246 247.696 355.999 246.428 356.508C245.037 357.066 244.615 356.798 244.684 358.406C244.76 360.183 244.773 361.604 243.963 363.257C243.585 364.031 242.185 365.075 242.449 365.945C242.828 367.195 246.717 368.458 247.851 368.895C250.565 369.94 253.731 369.961 256.292 368.484C259.268 366.769 259.531 363.658 258.41 360.648C258.291 360.327 257.856 359.785 257.963 359.434C258.159 358.791 258.967 358.884 259.431 359.129C260.439 359.662 260.859 361.283 261.076 362.294C261.655 364.996 260.591 367.922 258.569 369.784C257.542 370.729 256.256 371.361 254.946 371.817C254.202 372.076 253.421 372.28 252.635 372.359C252 372.423 251.199 372.223 250.592 372.404C249.524 372.722 249.476 374.04 249.209 375.003C248.732 376.725 248.532 378.589 248.47 380.371C248.368 383.252 248.711 386.923 250.369 389.365C254.236 395.065 261.715 397.043 267.554 399.976C270.658 401.535 273.536 403.493 276.299 405.587C276.572 405.794 276.981 406.2 277.309 406.361C278.416 406.906 277.449 406.707 278.158 406.347C278.704 406.07 279.171 405.468 279.736 405.154C281.035 404.431 282.494 404.04 283.816 403.357C286.889 401.768 289.607 399.796 292.335 397.691C295.129 395.534 297.96 393.565 300.509 391.11C301.584 390.075 302.794 389.222 303.885 388.231C304.983 387.233 303.578 386.819 302.647 386.085C299.482 383.584 296.355 381.005 292.975 378.795C291.847 378.058 290.852 377.063 289.676 376.412C288.447 375.731 287.718 376.341 286.75 377.206C285.692 378.152 284.684 379.079 283.507 379.888C281.952 380.957 280.145 381.471 278.581 382.489C279.585 383.54 282.032 383.891 282.387 385.482C282.747 387.095 280.345 388.353 279.223 388.976C277.241 390.076 275.055 390.743 272.847 391.22C271.009 391.617 268.285 391.02 266.813 392.407C266.393 391.518 265.999 391.055 266.69 390.205C267.38 389.357 268.611 389.211 269.585 388.885C272.215 388.003 274.807 386.829 277.352 385.728C277.014 384.938 276.17 384.396 275.526 383.882C274.607 383.146 273.835 382.332 273.087 381.418C271.66 379.674 270.38 377.814 269.02 376.019C268.431 375.24 267.893 374.462 266.817 374.894C265.866 375.274 264.939 376.261 264.026 376.772C261.96 377.929 260.153 379.038 257.88 379.774C256.964 380.07 253.213 380.915 254.21 378.622C254.506 377.942 255.494 377.662 256.103 377.365C257.228 376.815 258.35 376.255 259.433 375.627C261.66 374.339 263.623 372.674 265.707 371.175C268.004 369.521 270.342 367.916 272.499 366.079C270.352 364.657 267.971 363.615 265.751 362.315C263.507 361 261.247 359.812 258.926 358.644C257.078 357.714 255.2 356.723 253.515 355.521C252.845 355.043 250.541 353.057 249.806 354.3ZM317.306 308.051C317.024 308.122 316.744 308.202 316.467 308.292C318.349 311.17 316.271 314.732 316.86 317.845C318.598 316.818 318.825 312.821 321.463 313.56C324.305 314.356 322.891 317.853 323.751 319.853C325.094 318.68 326.661 319.777 327.215 321.169C327.815 322.678 326.983 324.071 327.263 325.564C327.552 327.108 328.416 326.095 328.894 325.184C329.504 324.022 330.037 322.452 329.812 321.123C329.539 319.508 328.454 318.005 327.782 316.538C327.114 315.079 326.482 313.591 325.515 312.297C323.685 309.848 320.506 307.647 317.306 308.051ZM335.506 342.555C334.277 339.489 332.459 336.68 331.297 333.59C330.958 332.686 330.768 331.245 329.869 330.688C329.279 330.322 328.493 330.542 327.842 330.345C327.193 330.149 326.509 329.682 326.043 329.199C325.192 328.317 324.916 327.106 323.911 326.338C322.615 325.347 321.614 324.966 320.997 323.31C320.513 322.008 320.512 321.818 319.057 322.108C317.468 322.425 316.178 322.037 315.082 320.796C313.226 318.695 313.021 315.735 313.932 313.198C314.357 312.012 315.099 310.632 314.483 309.391C313.911 308.237 312.522 307.409 311.642 306.489C309.418 304.165 307.677 301.446 305.591 299.007C305.092 298.424 304.581 297.842 304.197 297.173C303.952 296.748 303.808 296.017 303.241 295.897C302.266 295.69 300.905 297.376 300.415 297.99C296.824 302.485 299.393 308.605 299.83 313.672C300.053 316.252 300.553 319.345 299.409 321.774C298.331 324.064 295.602 325.206 293.302 325.844C290.2 326.703 286.869 326.665 283.712 326.143C282.059 325.87 280.472 325.403 278.907 324.812C277.306 324.207 275.641 323.166 274.009 324.264C271.902 325.682 272.553 328.526 273.016 330.599C273.771 333.985 275.091 337.144 276.258 340.397C277.239 343.129 278.033 346.557 275.972 349.002C273.913 351.443 270.499 352.972 267.321 352.845C260.733 352.582 254.72 347.67 247.987 349.679C249.252 350.202 250.589 350.51 251.825 351.108C253.317 351.831 254.698 352.791 256.147 353.595C258.927 355.137 261.717 356.657 264.434 358.31C266.89 359.802 269.211 361.438 271.554 363.092C274.474 365.154 276.012 362.871 277.885 360.644C281.974 355.783 285.867 350.635 289.582 345.484C292.813 341.006 295.811 336.33 298.147 331.327C298.983 329.537 300.39 326.5 302.836 326.854C305.007 327.167 306.273 329.787 307.396 331.39C308.179 330.829 308.851 330.079 309.908 330.387C310.785 330.643 311.392 331.543 311.78 332.311C312.047 332.838 312.228 334.616 312.675 334.884C312.992 335.074 314.206 334.665 314.746 334.79C316.598 335.218 317.189 337.597 317.17 339.248C317.144 341.525 316.193 343.802 315.414 345.91C313.667 350.635 310.674 354.327 307.375 358.061C304.026 361.85 300.521 365.284 296.744 368.646C295.812 369.476 294.889 370.315 293.98 371.171C293.235 371.872 292.055 372.601 291.472 373.425C290.393 374.95 293.28 375.642 294.354 376.2C298.977 378.6 303.237 381.762 307.308 384.985C311.506 388.31 315.728 391.647 319.762 395.17C323.709 398.616 327.436 402.289 331.592 405.494C335.862 408.786 340.335 411.826 344.723 414.959C349.114 418.094 353.388 421.394 357.774 424.534C362.061 427.602 366.663 430.233 371.172 432.957C373.53 434.382 375.901 435.787 378.271 437.194C380.187 438.332 382.267 440.1 384.539 440.244C386.585 440.373 388.527 441.126 389.75 438.901C390.679 437.212 390.294 434.888 389.481 433.246C388.489 431.243 386.936 429.402 385.689 427.548C384.254 425.416 382.923 423.223 381.508 421.081C380.15 419.026 378.642 417.13 377.127 415.194C375.592 413.231 374.427 411.019 373.059 408.941C370.134 404.498 367.127 400.135 364.355 395.593C357.996 385.176 352.301 374.421 346.859 363.505C346.38 362.544 335.193 342.726 335.506 342.555ZM326.553 406.603C329.97 418.415 327.999 430.427 327.299 442.444C326.944 448.52 326.89 454.634 326.733 460.719C326.657 463.676 326.662 466.636 326.785 469.593C326.847 471.08 326.956 472.562 327.061 474.046C327.155 475.359 326.803 476.81 326.968 478.077C327.181 479.699 330.401 480.017 329.412 482.099C328.748 483.496 326.423 483.709 325.178 484.298C325.732 484.939 326.598 485.899 327.521 485.959C328.353 486.013 328.996 485.292 329.741 485.019C330.403 484.777 331.314 484.542 331.732 485.315C332.17 486.124 331.253 487.023 330.891 487.65C332.123 487.889 332.976 487.153 334.088 487.22C335.258 487.291 335.311 488.443 336.08 489.109C336.959 489.87 338.494 490.034 339.578 490.355C340.839 490.727 342.106 491.19 343.254 491.837C345.307 492.993 347.071 495.179 347.83 497.415C348.616 499.734 347.388 501.74 345.559 503.162C344.878 503.692 343.901 504.308 342.997 504.022C341.964 503.695 341.803 502.855 340.544 502.917C339.414 502.974 338.341 503.425 337.205 503.483C335.534 503.568 333.866 503.264 332.194 503.328C325.446 503.587 318.698 503.645 311.962 502.996C310.219 502.828 308.511 502.691 306.793 502.636C305.457 502.593 305.345 501.597 305.118 500.346C304.572 497.325 305.781 494.351 305.182 491.415C305.222 491.609 304.276 491.105 304.162 491.009C303.468 490.425 303.236 489.594 303.029 488.731C302.478 486.434 302.484 484.093 302.654 481.749C303.041 476.431 304.031 471.161 303.95 465.815C303.909 463.12 303.99 460.431 303.991 457.737C303.992 455.263 304.216 452.82 304.237 450.363C304.282 444.975 304.85 439.648 305.008 434.266C303.886 435.357 303.291 436.878 302.579 438.239C301.703 439.913 300.726 441.57 299.655 443.127C297.446 446.344 294.482 448.962 291.41 451.335C285.55 455.864 279.183 459.371 272.002 461.292C264.229 463.371 256.368 464.775 248.355 465.563C246.5 465.746 244.626 465.845 242.768 465.664C241.551 465.546 239.573 464.563 238.417 465.062C237.103 465.629 236.838 466.992 235.115 466.61C234.458 466.464 233.982 466.025 233.406 465.728C232.559 465.293 232.526 465.594 231.717 465.649C230.816 465.711 230.276 465.261 229.49 465.987C228.823 466.603 228.888 467.035 229.497 467.611C230.353 468.422 231.724 468.558 232.581 469.405C233.415 470.228 233.266 471.24 231.978 471.252C230.681 471.265 229.529 470.342 228.263 470.222C228.533 473.969 229.66 478.156 228.41 481.832C227.83 483.538 226.585 484.637 224.729 484.625C221.624 484.605 218.899 481.748 217.029 479.522C215.995 478.292 215.156 476.91 214.158 475.649C213.137 474.36 212.043 473.065 211.458 471.506C210.837 469.848 211.018 468.184 211.366 466.482C211.796 464.375 212.196 462.246 212.716 460.16C213.724 456.113 215.752 452.419 216.776 448.384C217.163 446.858 217.158 445.067 218.136 443.758C219.171 442.372 220.781 442.283 222.378 442.372C224.354 442.482 226.329 442.7 228.295 442.924C229.537 443.065 232.257 443.96 233.267 443.197C233.615 442.935 233.616 442.246 234.023 442.009C234.415 441.779 235.048 441.944 235.477 441.976C237.599 442.133 239.741 442.325 241.868 442.387C249.773 442.618 258.116 441.386 265.174 437.713C268.45 436.009 270.945 433.326 273.578 430.791C276.167 428.3 278.423 425.618 279.119 422C279.755 418.697 279.514 414.748 278.458 411.551C277.429 408.437 273.778 406.551 271.12 405.015C267.435 402.886 263.522 401.121 259.551 399.592C258.921 399.35 258.155 399.041 257.462 399.165C256.612 399.317 256.041 400.054 255.268 400.379C254.349 400.765 253.221 400.767 252.251 400.993C251.311 401.212 250.394 401.513 249.437 401.657C246.42 402.112 242.181 401.749 239.688 399.822C235.614 396.673 238.076 392.216 239.385 388.383C238.001 388.336 236.848 388.66 235.527 388.068C234.211 387.477 233.182 386.433 232.582 385.124C231.49 382.742 232.121 380.006 232.443 377.523C232.589 376.4 232.755 375.286 233.183 374.231C233.515 373.415 234.06 372.636 234.261 371.772C234.482 370.821 234.195 370.766 233.402 370.311C232.178 369.609 231.298 368.803 230.549 367.572C229.082 365.16 229.046 362.529 230.248 359.992C230.734 358.966 231.895 357.554 231.763 356.355C231.649 355.324 230.482 354.52 229.794 353.845C227.671 351.759 225.414 349.834 223.06 348.014C221.96 347.164 220.748 346.392 219.748 345.426C219.015 344.718 218.271 343.179 217.269 342.806C216.266 342.434 215.598 343.554 214.899 344.154C213.81 345.09 212.766 346.167 211.579 346.978C209.451 348.433 206.811 348.161 204.407 347.696C201.896 347.21 199.567 346.355 197.426 344.945C196.576 344.384 195.582 343.245 194.535 343.154C193.416 343.057 192.201 344.169 191.401 344.837C189.314 346.58 188.687 349.287 187.472 351.629C186.114 354.244 185.537 356.959 185.907 359.898C186.239 362.543 187.258 364.542 188.773 366.678C189.086 367.12 189.82 367.955 189.284 368.443C188.628 369.041 187.283 367.842 186.843 367.455C182.467 363.606 179.98 357.807 181.4 352.002C182.163 348.885 183.654 346.001 185.387 343.319C186.123 342.178 186.842 341.037 188.123 340.455C189.581 339.793 191.233 339.872 192.791 339.713C191.713 334.439 191.376 328.701 194.687 324.105C197.227 320.578 202.429 317.492 206.552 320.352C206.383 316.464 205.829 312.772 206.864 308.944C207.328 307.228 207.963 305.559 208.744 303.962C209.508 302.398 210.565 301.071 211.183 299.442C213.621 293.018 218.298 287.28 223.294 282.669C228.344 278.008 233.3 272.322 239.662 269.407C246.298 266.364 253.057 263.63 260.253 262.248C267.722 260.813 275.399 260.518 282.923 261.877C289.519 263.068 295.623 267.072 300.614 271.39C306.309 276.316 309.985 282.255 312.894 289.134C313.532 290.645 314.148 292.169 314.932 293.614C315.801 295.216 316.918 296.706 317.557 298.426C318.128 299.959 318.224 301.623 317.208 302.993C316.494 303.956 315.029 304.174 314.405 305.055C314.09 305.499 314.122 305.922 314.814 306.054C315.53 306.191 315.871 305.393 316.385 305.073C317.665 304.276 319.472 304.955 320.766 305.408C323.835 306.481 326.238 308.408 328.075 311.079C329.832 313.636 331 316.54 332.16 319.399C332.893 321.203 333.589 322.995 333.993 324.906C334.144 325.625 334.356 327.574 333.22 326.72C332.759 326.374 332.101 329.001 332.225 329.419C332.657 330.874 334.198 332.239 335.104 333.417C337.236 336.186 338.664 339.289 340.168 342.421C343.426 349.204 347.053 355.789 350.538 362.454C357.636 376.028 365.392 389.081 373.528 402.055C377.559 408.484 381.715 414.802 386.023 421.047C387.925 423.803 389.832 426.561 391.692 429.345C393.273 431.711 394.833 434.345 394.426 437.298C394.053 440.002 392.447 442.173 389.85 443.057C388.458 443.531 386.806 444.077 385.316 443.932C383.687 443.773 382.25 442.683 380.892 441.865C374.653 438.105 368.412 434.348 362.169 430.595C355.186 426.397 348.8 421.413 342.139 416.746C338.749 414.371 335.254 412.231 331.722 410.081C330.926 409.597 327.318 406.129 326.553 406.603Z" fill="#3A3A3A"/>
<path fill-rule="evenodd" clip-rule="evenodd" d="M266.094 418.553C264.388 421.064 262.595 423.424 260.194 425.329C257.665 427.336 255.02 428.962 252.196 430.52C247.216 433.266 240.541 435.699 234.757 434.454C233.112 434.1 230.48 432.66 231.91 430.605C232.629 429.573 234.171 429.842 235.263 429.899C237.021 429.991 238.559 430.091 240.244 429.499C243.339 428.412 246.456 427.386 249.479 426.106C252.407 424.866 254.975 423.165 257.661 421.495C260.181 419.928 262.103 418.052 264.316 416.158C264.922 415.639 265.964 414.732 266.537 415.74C266.952 416.469 266.321 417.84 266.094 418.553Z" fill="#3A3A3A"/>
<path fill-rule="evenodd" clip-rule="evenodd" d="M335.01 297.941C334.82 299.029 334.304 301.193 332.774 300.897C330.822 300.52 331.783 296.698 331.754 295.401C331.624 289.748 329.781 284.312 327.052 279.411C325.694 276.974 324.023 274.72 322.789 272.214C322.55 271.727 321.823 270.519 322.351 269.991C322.985 269.356 324.201 270.314 324.649 270.767C326.377 272.518 327.753 275.142 329.087 277.203C330.869 279.953 332.442 282.859 333.572 285.943C334.936 289.668 335.702 293.989 335.01 297.941Z" fill="#3A3A3A"/>
<path fill-rule="evenodd" clip-rule="evenodd" d="M338.663 279.863C338.845 280.843 339.738 283.511 338.146 283.747C336.343 284.015 335.782 279.571 335.281 278.393C335.017 277.773 333.61 275.039 334.344 274.444C335.871 273.205 338.301 279.074 338.663 279.863Z" fill="#3A3A3A"/>
<path fill-rule="evenodd" clip-rule="evenodd" d="M253.771 412.147C252.059 413.707 250.071 413.616 247.91 413.467C246.813 413.392 244.271 412.742 246.037 411.381C246.96 410.67 254.198 410.181 253.771 412.147Z" fill="#3A3A3A"/>
<path fill-rule="evenodd" clip-rule="evenodd" d="M387.177 440.709C387.299 440.467 388.326 439.305 388.548 439.775C388.757 440.218 387.449 440.696 387.177 440.709Z" fill="#3A3A3A"/>
<path fill-rule="evenodd" clip-rule="evenodd" d="M251.003 354.474C250.792 354.908 249.913 354.529 249.61 354.595C250.021 353.713 250.511 353.902 251.003 354.474Z" fill="#3A3A3A"/>
<path fill-rule="evenodd" clip-rule="evenodd" d="M317.175 308.365C317.083 308.714 316.992 309.062 316.901 309.41C316.76 309.149 316.619 308.888 316.478 308.627C316.71 308.54 316.943 308.453 317.175 308.365Z" fill="#3A3A3A"/>
<path fill-rule="evenodd" clip-rule="evenodd" d="M318.856 374.166C321.053 374.388 323.258 374.5 325.464 374.568C327.326 374.625 328.091 374.273 328.329 372.337C328.61 370.043 328.707 367.728 328.988 365.432C329.116 364.39 330.128 362.306 328.909 361.748C327.888 361.28 326.296 361.95 325.226 362.029C324.035 362.117 322.237 361.753 321.184 362.46C320.058 363.215 320.303 365.859 320.111 367.1C319.745 369.465 319.304 371.815 318.856 374.166ZM317.808 363.022C315.816 363.173 313.818 363.292 311.832 363.504C310.949 363.598 309.16 364.035 308.415 363.392C306.666 361.883 313.201 361.353 313.943 361.234C315.193 361.034 317.331 361.3 318.132 360.121C318.924 358.954 318.724 356.993 318.929 355.639C319.237 353.601 319.59 351.565 319.795 349.513C319.864 348.824 319.766 346.546 320.494 346.207C322.168 345.429 321.642 353.447 321.614 354.048C321.567 355.083 321.515 356.123 321.371 357.149C321.29 357.727 321.004 358.509 321.18 359.09C321.685 360.756 324.552 359.796 325.858 359.663C327.322 359.514 329.581 360.081 330.066 358.275C330.675 356.005 330.586 353.428 330.812 351.093C330.874 350.448 331.037 345.625 332.227 345.999C333.556 346.417 333.037 350.446 333.025 351.484C333.012 352.655 333.016 353.826 332.937 354.995C332.866 356.045 332.57 357.332 332.789 358.372C333.173 360.196 335.335 359.226 335.963 360.677C336.559 362.056 333.308 360.975 332.701 361.449C331.795 362.156 332.013 365.111 331.883 366.146C331.599 368.419 331.053 370.779 330.876 373.046C330.736 374.835 332.174 374.597 333.637 374.468C334.893 374.357 336.271 374.058 337.529 374.226C338.54 374.36 339.952 375.291 338.481 375.911C336.18 376.88 331.496 374.9 330.34 377.843C330.122 378.399 329.107 384.838 327.832 381.659C327.3 380.331 328.604 378.246 327.213 377.228C326.731 376.875 326.012 376.937 325.452 376.898C324.074 376.802 322.687 376.769 321.307 376.741C319.93 376.712 318.693 376.435 318.161 377.943C317.747 379.118 317.793 380.433 317.462 381.635C317.214 382.537 316.399 384.114 315.553 382.64C314.998 381.671 315.423 379.979 315.533 378.926C315.588 378.399 315.902 377.307 315.502 376.864C315.072 376.389 313.923 376.646 313.38 376.689C311.812 376.814 308.891 377.568 307.69 376.146C306.686 374.956 308.774 374.933 309.595 374.853C310.44 374.77 311.286 374.693 312.131 374.605C313.061 374.506 314.293 374.637 315.169 374.346C316.639 373.856 316.534 371.857 316.631 370.56C316.82 368.027 317.389 365.525 317.808 363.022Z" fill="#3A3A3A"/>
<path fill-rule="evenodd" clip-rule="evenodd" d="M343.643 368.432C343.525 369.895 343.366 371.534 342.894 372.924C342.537 373.975 341.815 374.294 341.569 372.956C341.413 372.108 342.45 367.331 343.643 368.432Z" fill="#3A3A3A"/>
<path fill-rule="evenodd" clip-rule="evenodd" d="M250.804 358.803C250.217 358.382 247.44 356.167 249.447 356.08C250.472 356.035 252.68 357.721 252.744 358.656C252.76 358.892 252.255 359.015 252.282 359.243C252.335 359.678 252.979 359.884 253.186 360.23C253.643 360.992 253.454 362.499 252.863 363.224C251.516 364.878 250.02 362.079 251.063 361.529C250.83 361.652 247.712 360.067 247.595 359.709C246.953 357.747 250.646 359.595 250.804 358.803Z" fill="#3A3A3A"/>
<path fill-rule="evenodd" clip-rule="evenodd" d="M255.699 366.522C254.987 366.545 253.556 366.495 253.022 365.987C252.031 365.041 253.965 364.916 254.531 364.475C255.324 363.859 255.48 361.852 256.726 363.093C257.961 364.325 256.875 365.758 255.699 366.522Z" fill="#3A3A3A"/>
<path fill-rule="evenodd" clip-rule="evenodd" d="M245.43 361.312C246.718 361.123 249.584 363.899 248.193 364.084C247.273 364.206 245.631 362.054 245.43 361.312Z" fill="#3A3A3A"/>
</svg>
