<svg width="338" height="340" viewBox="0 0 338 340" fill="none" xmlns="http://www.w3.org/2000/svg">
<path fill-rule="evenodd" clip-rule="evenodd" d="M271.563 281.982C274.217 281.221 275.752 278.452 274.991 275.797C274.23 273.143 271.461 271.608 268.806 272.369C266.152 273.13 264.617 275.899 265.378 278.554C266.139 281.208 268.908 282.743 271.563 281.982Z" fill="#F8B64C"/>
<path fill-rule="evenodd" clip-rule="evenodd" d="M77.5291 233.964C80.1836 233.203 81.7184 230.434 80.9572 227.779C80.1961 225.125 77.4272 223.59 74.7727 224.351C72.1183 225.112 70.5835 227.881 71.3446 230.536C72.1058 233.19 74.8747 234.725 77.5291 233.964Z" fill="#F8B64C"/>
<path fill-rule="evenodd" clip-rule="evenodd" d="M33.8926 136.205C36.5471 135.443 38.0819 132.675 37.3208 130.02C36.5596 127.366 33.7907 125.831 31.1363 126.592C28.4818 127.353 26.947 130.122 27.7081 132.776C28.4693 135.431 31.2382 136.966 33.8926 136.205Z" fill="#F8B64C"/>
<path fill-rule="evenodd" clip-rule="evenodd" d="M224.577 21.1894C227.231 20.4282 228.766 17.6593 228.005 15.0049C227.244 12.3504 224.475 10.8156 221.821 11.5768C219.166 12.3379 217.631 15.1068 218.392 17.7613C219.154 20.4157 221.923 21.9505 224.577 21.1894Z" fill="#F8B64C"/>
<path fill-rule="evenodd" clip-rule="evenodd" d="M30.7622 94.4499L38.8021 98.9065L34.3455 106.946L26.3057 102.49L30.7622 94.4499Z" fill="#FFD841"/>
<path fill-rule="evenodd" clip-rule="evenodd" d="M261.734 21.9781L269.774 26.4347L265.317 34.4745L257.277 30.018L261.734 21.9781Z" fill="#FFD841"/>
<path fill-rule="evenodd" clip-rule="evenodd" d="M267.272 211.805L275.312 216.262L270.855 224.302L262.815 219.845L267.272 211.805Z" fill="#FFD841"/>
<path fill-rule="evenodd" clip-rule="evenodd" d="M98.9027 248.641L106.943 253.098L102.486 261.137L94.4462 256.681L98.9027 248.641Z" fill="#FFD841"/>
<path fill-rule="evenodd" clip-rule="evenodd" d="M131.146 165.937C130.453 166.337 130.16 167.43 130.56 168.123L135.26 176.263C135.86 177.303 135.394 178.495 134.528 178.995C133.662 179.495 132.296 179.129 131.796 178.263L127.096 170.123C126.423 169.357 125.603 169.137 124.737 169.637L124.564 169.737C123.871 170.137 123.579 171.23 123.979 171.923L128.679 180.063C129.279 181.103 128.813 182.295 127.947 182.795C127.081 183.295 125.715 182.929 125.215 182.063L120.515 173.923C120.115 173.23 119.022 172.937 118.329 173.337C117.636 173.737 117.343 174.83 117.743 175.523L122.543 183.837C124.443 187.127 128.322 189.045 131.966 188.558C134.027 194.527 141.509 214.687 148.513 216.417C149.879 216.783 152.996 214.983 153.362 213.617C155.366 206.687 141.648 190.127 137.509 185.358C139.853 182.618 140.232 178.474 138.332 175.183L133.332 166.523C132.832 165.657 131.839 165.537 131.146 165.937Z" fill="#DCDCDC"/>
<path fill-rule="evenodd" clip-rule="evenodd" d="M135.881 198.537C139.215 206.312 143.868 215.172 148.513 216.417C149.879 216.783 152.996 214.983 153.362 213.617C154.607 208.972 149.26 200.512 144.194 193.737L135.881 198.537V198.537Z" fill="#F8B64C"/>
<path fill-rule="evenodd" clip-rule="evenodd" d="M190.687 127.866C186.357 130.366 186.493 138.601 188.893 142.758L189.793 144.317C191.693 147.608 195.472 149.352 199.189 148.591C200.923 153.595 208.686 175.44 216.063 177.417C217.429 177.783 220.546 175.983 220.912 174.617C222.889 167.24 207.852 149.595 204.386 145.591C206.73 142.852 207.282 138.608 205.382 135.317L204.482 133.758C202.082 129.601 195.018 125.366 190.687 127.866Z" fill="#DCDCDC"/>
<path fill-rule="evenodd" clip-rule="evenodd" d="M203.431 159.537C206.765 167.312 211.418 176.172 216.063 177.417C217.429 177.783 220.546 175.983 220.912 174.617C222.157 169.972 216.81 161.512 211.744 154.737L203.431 159.537V159.537Z" fill="#F8B64C"/>
<path d="M185.013 196.036C198.405 188.304 202.993 171.18 195.261 157.788C187.529 144.395 170.405 139.807 157.013 147.539C143.62 155.271 139.032 172.395 146.764 185.788C154.496 199.18 171.62 203.768 185.013 196.036Z" fill="#FFD600"/>
<path d="M181.512 189.974C191.557 184.175 194.998 171.332 189.199 161.288C183.4 151.244 170.557 147.802 160.512 153.601C150.468 159.4 147.027 172.244 152.826 182.288C158.625 192.332 171.468 195.773 181.512 189.974Z" fill="white"/>
<path d="M217.687 174.631C218.548 174.134 218.53 172.49 217.646 170.96C216.763 169.429 215.348 168.591 214.487 169.089C213.627 169.586 213.645 171.229 214.529 172.76C215.412 174.29 216.827 175.128 217.687 174.631Z" fill="white"/>
<path d="M150.138 213.631C150.998 213.134 150.98 211.49 150.096 209.96C149.213 208.429 147.798 207.591 146.938 208.089C146.077 208.586 146.095 210.229 146.979 211.76C147.862 213.29 149.277 214.128 150.138 213.631Z" fill="white"/>
<path fill-rule="evenodd" clip-rule="evenodd" d="M149.5 339.068C232.067 339.068 299 272.135 299 189.568C299 107.002 232.067 40.0681 149.5 40.0681C66.9334 40.0681 0 107.002 0 189.568C0 272.135 66.9334 339.068 149.5 339.068Z" fill="#F8B64C"/>
<mask id="mask0_4_121" style="mask-type:luminance" maskUnits="userSpaceOnUse" x="0" y="40" width="299" height="300">
<path fill-rule="evenodd" clip-rule="evenodd" d="M149.5 339.068C232.067 339.068 299 272.135 299 189.568C299 107.002 232.067 40.0681 149.5 40.0681C66.9334 40.0681 0 107.002 0 189.568C0 272.135 66.9334 339.068 149.5 339.068Z" fill="white"/>
</mask>
<g mask="url(#mask0_4_121)">
<path fill-rule="evenodd" clip-rule="evenodd" d="M197.866 6.14976C331.64 79.3599 228.192 127.099 311.045 200.178C357.736 241.362 288.737 320.522 207.406 318.996C178.435 318.452 148.618 264.272 120.906 254.996C88.3657 244.103 59.0145 272.547 42.2263 234.363C-28.9946 72.3735 113.647 127.479 120.953 55.6228C128.26 -16.2336 179.094 -3.41695 197.866 6.14976Z" fill="#FBFBFB"/>
<path fill-rule="evenodd" clip-rule="evenodd" d="M271.563 281.738C274.217 280.977 275.752 278.208 274.991 275.554C274.23 272.899 271.461 271.364 268.806 272.125C266.152 272.887 264.617 275.655 265.378 278.31C266.139 280.964 268.908 282.499 271.563 281.738Z" fill="#22A45D"/>
<path fill-rule="evenodd" clip-rule="evenodd" d="M75.5421 233.964C78.1965 233.203 79.7313 230.434 78.9702 227.779C78.209 225.125 75.4401 223.59 72.7857 224.351C70.1312 225.112 68.5964 227.881 69.3576 230.536C70.1187 233.19 72.8876 234.725 75.5421 233.964Z" fill="#22A45D"/>
<path fill-rule="evenodd" clip-rule="evenodd" d="M31.9055 136.205C34.5599 135.443 36.0947 132.675 35.3336 130.02C34.5724 127.366 31.8035 125.831 29.1491 126.592C26.4946 127.353 24.9598 130.122 25.721 132.776C26.4821 135.431 29.251 136.966 31.9055 136.205Z" fill="#22A45D"/>
<path fill-rule="evenodd" clip-rule="evenodd" d="M265.285 211.805L273.324 216.262L268.868 224.302L260.828 219.845L265.285 211.805Z" fill="#FFD841"/>
<path fill-rule="evenodd" clip-rule="evenodd" d="M96.9156 248.641L104.955 253.098L100.499 261.137L92.459 256.681L96.9156 248.641Z" fill="#FFD841"/>
<path fill-rule="evenodd" clip-rule="evenodd" d="M28.7751 94.45L36.8149 98.9066L32.3583 106.946L24.3185 102.49L28.7751 94.45Z" fill="#FFD841"/>
<path fill-rule="evenodd" clip-rule="evenodd" d="M129.159 165.937C128.466 166.337 128.173 167.43 128.573 168.123L133.273 176.263C133.873 177.303 133.407 178.495 132.541 178.995C131.675 179.495 130.309 179.129 129.809 178.263L125.109 170.123C124.436 169.357 123.616 169.137 122.75 169.637L122.577 169.737C121.884 170.137 121.591 171.23 121.991 171.923L126.691 180.063C127.291 181.103 126.825 182.295 125.959 182.795C125.093 183.295 123.727 182.929 123.227 182.063L118.527 173.923C118.127 173.23 117.035 172.937 116.342 173.337C115.649 173.737 115.356 174.83 115.756 175.523L120.556 183.837C122.456 187.127 126.335 189.045 129.979 188.558C132.04 194.527 139.522 214.687 146.525 216.417C147.891 216.783 151.009 214.983 151.375 213.617C153.378 206.687 139.661 190.127 135.522 185.358C137.866 182.618 138.245 178.474 136.345 175.183L131.345 166.523C130.845 165.657 129.852 165.537 129.159 165.937Z" fill="#DCDCDC"/>
<path fill-rule="evenodd" clip-rule="evenodd" d="M133.893 198.537C137.227 206.312 141.881 215.172 146.525 216.417C147.891 216.783 151.009 214.983 151.375 213.617C152.62 208.972 147.273 200.512 142.207 193.737L133.893 198.537V198.537Z" fill="#22A45D"/>
<path fill-rule="evenodd" clip-rule="evenodd" d="M188.7 127.866C184.37 130.366 184.506 138.601 186.906 142.758L187.806 144.317C189.706 147.608 193.485 149.352 197.202 148.592C198.936 153.595 206.699 175.44 214.075 177.417C215.441 177.783 218.559 175.983 218.925 174.617C220.902 167.24 205.864 149.595 202.398 145.592C204.743 142.852 205.295 138.608 203.395 135.317L202.495 133.758C200.095 129.601 193.03 125.366 188.7 127.866Z" fill="#DCDCDC"/>
<path fill-rule="evenodd" clip-rule="evenodd" d="M201.443 159.537C204.777 167.312 209.431 176.172 214.075 177.417C215.441 177.783 218.559 175.983 218.925 174.617C220.17 169.972 214.823 161.512 209.757 154.737L201.443 159.537V159.537Z" fill="#22A45D"/>
<path d="M183.025 196.036C196.418 188.304 201.006 171.18 193.274 157.788C185.542 144.396 168.418 139.807 155.025 147.539C141.633 155.271 137.045 172.396 144.777 185.788C152.509 199.18 169.633 203.768 183.025 196.036Z" fill="#FFD600"/>
<path d="M179.525 189.974C189.569 184.175 193.011 171.332 187.212 161.288C181.413 151.244 168.569 147.802 158.525 153.601C148.481 159.4 145.04 172.244 150.839 182.288C156.638 192.332 169.481 195.773 179.525 189.974Z" fill="white"/>
<path d="M215.7 174.631C216.561 174.134 216.543 172.49 215.659 170.96C214.776 169.429 213.361 168.592 212.5 169.089C211.639 169.586 211.658 171.229 212.541 172.76C213.425 174.29 214.839 175.128 215.7 174.631Z" fill="white"/>
<path d="M148.15 213.631C149.011 213.134 148.993 211.49 148.109 209.96C147.226 208.429 145.811 207.592 144.95 208.089C144.089 208.586 144.108 210.229 144.991 211.76C145.875 213.29 147.289 214.128 148.15 213.631Z" fill="white"/>
</g>
</svg>
